<svg id="visual" viewBox="0 0 900 600" width="900" height="600" xmlns="http://www.w3.org/2000/svg" xmlns:xlink="http://www.w3.org/1999/xlink" version="1.1"><g stroke-width="1" stroke-linejoin="bevel"><path d="M420 264L427 219L363.5 228Z" fill="#1a1a1a" stroke="#1a1a1a"></path><path d="M363.5 228L314.5 303L420 264Z" fill="#060606" stroke="#060606"></path><path d="M427 219L324.5 118L363.5 228Z" fill="#1a1a1a" stroke="#1a1a1a"></path><path d="M363.5 228L215 214L314.5 303Z" fill="#1a1a1a" stroke="#1a1a1a"></path><path d="M417 397L538.5 271L420 264Z" fill="#060606" stroke="#060606"></path><path d="M420 264L538.5 271L427 219Z" fill="#242424" stroke="#242424"></path><path d="M427 219L470 109L324.5 118Z" fill="#1d1d1d" stroke="#1d1d1d"></path><path d="M539.5 186L470 109L427 219Z" fill="#141414" stroke="#141414"></path><path d="M538.5 271L539.5 186L427 219Z" fill="#0b0b0b" stroke="#0b0b0b"></path><path d="M314.5 303L342.5 388L420 264Z" fill="#101010" stroke="#101010"></path><path d="M342.5 388L417 397L420 264Z" fill="#101010" stroke="#101010"></path><path d="M324.5 118L215 214L363.5 228Z" fill="#272727" stroke="#272727"></path><path d="M314.5 303L219 394L342.5 388Z" fill="#000000" stroke="#000000"></path><path d="M371.5 0L255 77L324.5 118Z" fill="#1d1d1d" stroke="#1d1d1d"></path><path d="M324.5 118L255 77L215 214Z" fill="#242424" stroke="#242424"></path><path d="M644 133L557.5 92L539.5 186Z" fill="#000000" stroke="#000000"></path><path d="M539.5 186L557.5 92L470 109Z" fill="#000000" stroke="#000000"></path><path d="M470 109L371.5 0L324.5 118Z" fill="#202020" stroke="#202020"></path><path d="M215 214L190 327L314.5 303Z" fill="#1a1a1a" stroke="#1a1a1a"></path><path d="M190 327L219 394L314.5 303Z" fill="#000000" stroke="#000000"></path><path d="M342.5 388L312.5 492L417 397Z" fill="#060606" stroke="#060606"></path><path d="M475 0L371.5 0L470 109Z" fill="#202020" stroke="#202020"></path><path d="M532.5 0L475 0L470 109Z" fill="#1a1a1a" stroke="#1a1a1a"></path><path d="M417 397L591.5 399L538.5 271Z" fill="#0b0b0b" stroke="#0b0b0b"></path><path d="M538.5 271L649 261L539.5 186Z" fill="#1d1d1d" stroke="#1d1d1d"></path><path d="M591.5 399L649 261L538.5 271Z" fill="#1d1d1d" stroke="#1d1d1d"></path><path d="M649 261L644 133L539.5 186Z" fill="#000000" stroke="#000000"></path><path d="M557.5 92L532.5 0L470 109Z" fill="#060606" stroke="#060606"></path><path d="M146.5 87L130.5 209L215 214Z" fill="#000000" stroke="#000000"></path><path d="M215 214L124.5 306L190 327Z" fill="#242424" stroke="#242424"></path><path d="M190 327L139.5 428L219 394Z" fill="#000000" stroke="#000000"></path><path d="M219 394L312.5 492L342.5 388Z" fill="#101010" stroke="#101010"></path><path d="M417 397L526.5 478L591.5 399Z" fill="#272727" stroke="#272727"></path><path d="M474 537L526.5 478L417 397Z" fill="#000000" stroke="#000000"></path><path d="M639 0L532.5 0L557.5 92Z" fill="#141414" stroke="#141414"></path><path d="M130.5 209L124.5 306L215 214Z" fill="#272727" stroke="#272727"></path><path d="M219 394L232 483L312.5 492Z" fill="#242424" stroke="#242424"></path><path d="M649 261L682 227L644 133Z" fill="#171717" stroke="#171717"></path><path d="M819.5 337L682 227L649 261Z" fill="#202020" stroke="#202020"></path><path d="M255 77L146.5 87L215 214Z" fill="#272727" stroke="#272727"></path><path d="M222 0L146.5 87L255 77Z" fill="#171717" stroke="#171717"></path><path d="M371.5 0L222 0L255 77Z" fill="#1a1a1a" stroke="#1a1a1a"></path><path d="M139.5 428L232 483L219 394Z" fill="#101010" stroke="#101010"></path><path d="M312.5 492L474 537L417 397Z" fill="#171717" stroke="#171717"></path><path d="M439 600L474 537L347.5 600Z" fill="#000000" stroke="#000000"></path><path d="M683 471L653 414L591.5 399Z" fill="#060606" stroke="#060606"></path><path d="M591.5 399L653 414L649 261Z" fill="#202020" stroke="#202020"></path><path d="M683 471L591.5 399L526.5 478Z" fill="#0b0b0b" stroke="#0b0b0b"></path><path d="M124.5 306L139.5 428L190 327Z" fill="#101010" stroke="#101010"></path><path d="M795.5 90L639 0L644 133Z" fill="#1d1d1d" stroke="#1d1d1d"></path><path d="M644 133L639 0L557.5 92Z" fill="#141414" stroke="#141414"></path><path d="M347.5 600L474 537L312.5 492Z" fill="#171717" stroke="#171717"></path><path d="M585.5 600L683 471L526.5 478Z" fill="#101010" stroke="#101010"></path><path d="M257 600L312.5 492L232 483Z" fill="#060606" stroke="#060606"></path><path d="M257 600L347.5 600L312.5 492Z" fill="#141414" stroke="#141414"></path><path d="M585.5 600L526.5 478L474 537Z" fill="#1d1d1d" stroke="#1d1d1d"></path><path d="M819.5 337L789.5 181L682 227Z" fill="#242424" stroke="#242424"></path><path d="M222 0L96.5 0L146.5 87Z" fill="#0b0b0b" stroke="#0b0b0b"></path><path d="M0 121L0 199L130.5 209Z" fill="#060606" stroke="#060606"></path><path d="M130.5 209L0 199L124.5 306Z" fill="#060606" stroke="#060606"></path><path d="M142.5 600L257 600L232 483Z" fill="#202020" stroke="#202020"></path><path d="M819.5 337L649 261L653 414Z" fill="#272727" stroke="#272727"></path><path d="M682 227L789.5 181L644 133Z" fill="#1d1d1d" stroke="#1d1d1d"></path><path d="M0 121L130.5 209L146.5 87Z" fill="#1a1a1a" stroke="#1a1a1a"></path><path d="M124.5 306L0 411L139.5 428Z" fill="#171717" stroke="#171717"></path><path d="M0 199L0 331L124.5 306Z" fill="#1a1a1a" stroke="#1a1a1a"></path><path d="M139.5 428L92.5 525L232 483Z" fill="#1a1a1a" stroke="#1a1a1a"></path><path d="M439 600L585.5 600L474 537Z" fill="#0b0b0b" stroke="#0b0b0b"></path><path d="M96.5 0L0 121L146.5 87Z" fill="#171717" stroke="#171717"></path><path d="M0 411L92.5 525L139.5 428Z" fill="#202020" stroke="#202020"></path><path d="M789.5 181L795.5 90L644 133Z" fill="#141414" stroke="#141414"></path><path d="M791.5 468L782.5 419L683 471Z" fill="#242424" stroke="#242424"></path><path d="M683 471L782.5 419L653 414Z" fill="#141414" stroke="#141414"></path><path d="M789.5 181L900 126L795.5 90Z" fill="#101010" stroke="#101010"></path><path d="M0 331L0 411L124.5 306Z" fill="#0b0b0b" stroke="#0b0b0b"></path><path d="M782.5 419L819.5 337L653 414Z" fill="#060606" stroke="#060606"></path><path d="M92.5 525L142.5 600L232 483Z" fill="#141414" stroke="#141414"></path><path d="M0 600L142.5 600L92.5 525Z" fill="#242424" stroke="#242424"></path><path d="M682 600L791.5 468L683 471Z" fill="#202020" stroke="#202020"></path><path d="M900 365L900 330L819.5 337Z" fill="#272727" stroke="#272727"></path><path d="M585.5 600L682 600L683 471Z" fill="#060606" stroke="#060606"></path><path d="M96.5 0L0 0L0 121Z" fill="#000000" stroke="#000000"></path><path d="M900 0L818.5 0L795.5 90Z" fill="#060606" stroke="#060606"></path><path d="M795.5 90L818.5 0L639 0Z" fill="#202020" stroke="#202020"></path><path d="M0 411L0 517L92.5 525Z" fill="#202020" stroke="#202020"></path><path d="M819.5 337L900 214L789.5 181Z" fill="#1a1a1a" stroke="#1a1a1a"></path><path d="M900 330L900 214L819.5 337Z" fill="#272727" stroke="#272727"></path><path d="M900 365L819.5 337L782.5 419Z" fill="#1d1d1d" stroke="#1d1d1d"></path><path d="M900 214L900 126L789.5 181Z" fill="#242424" stroke="#242424"></path><path d="M900 481L782.5 419L791.5 468Z" fill="#141414" stroke="#141414"></path><path d="M900 481L900 365L782.5 419Z" fill="#1d1d1d" stroke="#1d1d1d"></path><path d="M0 517L0 600L92.5 525Z" fill="#000000" stroke="#000000"></path><path d="M900 126L900 0L795.5 90Z" fill="#000000" stroke="#000000"></path><path d="M824.5 600L900 481L791.5 468Z" fill="#060606" stroke="#060606"></path><path d="M682 600L824.5 600L791.5 468Z" fill="#1a1a1a" stroke="#1a1a1a"></path><path d="M824.5 600L900 600L900 481Z" fill="#242424" stroke="#242424"></path></g></svg>